<mxfile host="app.diagrams.net" modified="2024-02-12T06:50:53.437Z" agent="Mozilla/5.0 (Windows NT 10.0; Win64; x64) AppleWebKit/537.36 (KHTML, like Gecko) Chrome/121.0.0.0 Safari/537.36" etag="a5s-UWgJxpa8xSwy2GOD" version="23.1.2" type="github">
  <diagram name="Page-1" id="74b105a0-9070-1c63-61bc-23e55f88626e">
    <mxGraphModel dx="1357" dy="806" grid="1" gridSize="10" guides="1" tooltips="1" connect="1" arrows="1" fold="1" page="1" pageScale="1.5" pageWidth="1169" pageHeight="826" background="none" math="0" shadow="0">
      <root>
        <mxCell id="0" style=";html=1;" />
        <mxCell id="1" style=";html=1;" parent="0" />
        <mxCell id="dG5a5I4tYh5ZI3J57kfK-68" value="" style="rounded=0;whiteSpace=wrap;html=1;" vertex="1" parent="1">
          <mxGeometry x="280" y="1420" width="910" height="360" as="geometry" />
        </mxCell>
        <mxCell id="dG5a5I4tYh5ZI3J57kfK-102" style="edgeStyle=orthogonalEdgeStyle;rounded=0;orthogonalLoop=1;jettySize=auto;html=1;exitX=0.5;exitY=0;exitDx=0;exitDy=0;" edge="1" parent="1" source="dG5a5I4tYh5ZI3J57kfK-91" target="dG5a5I4tYh5ZI3J57kfK-93">
          <mxGeometry relative="1" as="geometry" />
        </mxCell>
        <mxCell id="dG5a5I4tYh5ZI3J57kfK-91" value="" style="rounded=1;whiteSpace=wrap;html=1;" vertex="1" parent="1">
          <mxGeometry x="310" y="1670" width="859.5" height="100" as="geometry" />
        </mxCell>
        <mxCell id="dG5a5I4tYh5ZI3J57kfK-27" value="" style="rounded=0;whiteSpace=wrap;html=1;" vertex="1" parent="1">
          <mxGeometry x="307.5" y="1090" width="830" height="310" as="geometry" />
        </mxCell>
        <mxCell id="dG5a5I4tYh5ZI3J57kfK-51" value="" style="rounded=1;whiteSpace=wrap;html=1;" vertex="1" parent="1">
          <mxGeometry x="317.5" y="1130" width="250" height="220" as="geometry" />
        </mxCell>
        <mxCell id="dG5a5I4tYh5ZI3J57kfK-1" value="" style="rounded=0;whiteSpace=wrap;html=1;" vertex="1" parent="1">
          <mxGeometry x="440" y="330" width="560" height="290" as="geometry" />
        </mxCell>
        <mxCell id="dG5a5I4tYh5ZI3J57kfK-22" value="" style="rounded=1;whiteSpace=wrap;html=1;" vertex="1" parent="1">
          <mxGeometry x="498" y="382" width="430" height="95" as="geometry" />
        </mxCell>
        <mxCell id="Xt9qdjApfpHrLMpdPrOk-26" value="" style="rounded=0;whiteSpace=wrap;html=1;" parent="1" vertex="1">
          <mxGeometry x="380" y="720" width="680" height="310" as="geometry" />
        </mxCell>
        <mxCell id="Xt9qdjApfpHrLMpdPrOk-20" value="" style="rounded=1;whiteSpace=wrap;html=1;" parent="1" vertex="1">
          <mxGeometry x="383.75" y="927" width="672.5" height="95" as="geometry" />
        </mxCell>
        <mxCell id="10b056a9c633e61c-30" value="Title" style="text;strokeColor=none;fillColor=none;html=1;fontSize=24;fontStyle=1;verticalAlign=middle;align=center;" parent="1" vertex="1">
          <mxGeometry x="80" y="40" width="1590" height="40" as="geometry" />
        </mxCell>
        <mxCell id="Xt9qdjApfpHrLMpdPrOk-1" value="&lt;font style=&quot;font-size: 18px;&quot;&gt;API for Open LLM&lt;/font&gt;" style="rounded=1;whiteSpace=wrap;html=1;" parent="1" vertex="1">
          <mxGeometry x="502.5" y="769" width="180" height="30" as="geometry" />
        </mxCell>
        <mxCell id="Xt9qdjApfpHrLMpdPrOk-6" value="&lt;font style=&quot;font-size: 18px;&quot;&gt;FastChat&lt;/font&gt;" style="rounded=1;whiteSpace=wrap;html=1;" parent="1" vertex="1">
          <mxGeometry x="747.5" y="769" width="180" height="30" as="geometry" />
        </mxCell>
        <mxCell id="dG5a5I4tYh5ZI3J57kfK-23" style="edgeStyle=orthogonalEdgeStyle;rounded=0;orthogonalLoop=1;jettySize=auto;html=1;exitX=0.5;exitY=0;exitDx=0;exitDy=0;" edge="1" parent="1" source="Xt9qdjApfpHrLMpdPrOk-8" target="Xt9qdjApfpHrLMpdPrOk-1">
          <mxGeometry relative="1" as="geometry" />
        </mxCell>
        <mxCell id="dG5a5I4tYh5ZI3J57kfK-24" style="edgeStyle=orthogonalEdgeStyle;rounded=0;orthogonalLoop=1;jettySize=auto;html=1;exitX=0.5;exitY=0;exitDx=0;exitDy=0;" edge="1" parent="1" source="Xt9qdjApfpHrLMpdPrOk-8" target="Xt9qdjApfpHrLMpdPrOk-6">
          <mxGeometry relative="1" as="geometry" />
        </mxCell>
        <mxCell id="Xt9qdjApfpHrLMpdPrOk-8" value="&lt;span style=&quot;font-size: 18px;&quot;&gt;Huggingface&lt;br&gt;Transformers&lt;br&gt;&lt;/span&gt;" style="rounded=1;whiteSpace=wrap;html=1;" parent="1" vertex="1">
          <mxGeometry x="630" y="840" width="180" height="50" as="geometry" />
        </mxCell>
        <mxCell id="Xt9qdjApfpHrLMpdPrOk-9" value="&lt;font style=&quot;font-size: 18px;&quot;&gt;LLaMa&lt;/font&gt;" style="rounded=0;whiteSpace=wrap;html=1;" parent="1" vertex="1">
          <mxGeometry x="412.5" y="942" width="100" height="40" as="geometry" />
        </mxCell>
        <mxCell id="Xt9qdjApfpHrLMpdPrOk-10" value="&lt;font style=&quot;font-size: 18px;&quot;&gt;Vicuna&lt;/font&gt;" style="rounded=0;whiteSpace=wrap;html=1;" parent="1" vertex="1">
          <mxGeometry x="542.5" y="942" width="100" height="40" as="geometry" />
        </mxCell>
        <mxCell id="Xt9qdjApfpHrLMpdPrOk-11" value="&lt;font style=&quot;font-size: 18px;&quot;&gt;QWEN&lt;/font&gt;" style="rounded=0;whiteSpace=wrap;html=1;" parent="1" vertex="1">
          <mxGeometry x="672.5" y="942" width="100" height="40" as="geometry" />
        </mxCell>
        <mxCell id="Xt9qdjApfpHrLMpdPrOk-12" value="&lt;span style=&quot;font-size: 18px;&quot;&gt;SQLcoder&lt;/span&gt;" style="rounded=0;whiteSpace=wrap;html=1;" parent="1" vertex="1">
          <mxGeometry x="802.5" y="942" width="100" height="40" as="geometry" />
        </mxCell>
        <mxCell id="Xt9qdjApfpHrLMpdPrOk-13" value="&lt;span style=&quot;font-size: 18px;&quot;&gt;......&lt;/span&gt;" style="rounded=0;whiteSpace=wrap;html=1;" parent="1" vertex="1">
          <mxGeometry x="927.5" y="942" width="100" height="40" as="geometry" />
        </mxCell>
        <mxCell id="Xt9qdjApfpHrLMpdPrOk-21" value="&lt;font style=&quot;font-size: 24px;&quot;&gt;OpenSource LLM&lt;/font&gt;" style="text;html=1;strokeColor=none;fillColor=none;align=center;verticalAlign=middle;whiteSpace=wrap;rounded=0;" parent="1" vertex="1">
          <mxGeometry x="600" y="992" width="240" height="20" as="geometry" />
        </mxCell>
        <mxCell id="Xt9qdjApfpHrLMpdPrOk-22" value="" style="endArrow=classic;html=1;rounded=0;entryX=0.5;entryY=1;entryDx=0;entryDy=0;exitX=0.5;exitY=0;exitDx=0;exitDy=0;" parent="1" source="Xt9qdjApfpHrLMpdPrOk-20" target="Xt9qdjApfpHrLMpdPrOk-8" edge="1">
          <mxGeometry width="50" height="50" relative="1" as="geometry">
            <mxPoint x="750" y="730" as="sourcePoint" />
            <mxPoint x="800" y="680" as="targetPoint" />
          </mxGeometry>
        </mxCell>
        <mxCell id="dG5a5I4tYh5ZI3J57kfK-25" style="edgeStyle=orthogonalEdgeStyle;rounded=0;orthogonalLoop=1;jettySize=auto;html=1;entryX=0.5;entryY=1;entryDx=0;entryDy=0;exitX=0.5;exitY=0;exitDx=0;exitDy=0;" edge="1" parent="1" source="Xt9qdjApfpHrLMpdPrOk-26" target="dG5a5I4tYh5ZI3J57kfK-1">
          <mxGeometry relative="1" as="geometry">
            <mxPoint x="720" y="710" as="sourcePoint" />
          </mxGeometry>
        </mxCell>
        <mxCell id="Xt9qdjApfpHrLMpdPrOk-25" value="&lt;font style=&quot;font-size: 24px;&quot;&gt;LLM Service Module&lt;/font&gt;" style="text;html=1;strokeColor=none;fillColor=none;align=center;verticalAlign=middle;whiteSpace=wrap;rounded=0;" parent="1" vertex="1">
          <mxGeometry x="580" y="730" width="270" height="30" as="geometry" />
        </mxCell>
        <mxCell id="dG5a5I4tYh5ZI3J57kfK-2" value="" style="rounded=1;whiteSpace=wrap;html=1;" vertex="1" parent="1">
          <mxGeometry x="455" y="517" width="530" height="95" as="geometry" />
        </mxCell>
        <mxCell id="dG5a5I4tYh5ZI3J57kfK-4" value="&lt;font style=&quot;font-size: 18px;&quot;&gt;ChatBot&lt;/font&gt;" style="rounded=1;whiteSpace=wrap;html=1;" vertex="1" parent="1">
          <mxGeometry x="508" y="391" width="120" height="30" as="geometry" />
        </mxCell>
        <mxCell id="dG5a5I4tYh5ZI3J57kfK-6" value="&lt;font style=&quot;font-size: 18px;&quot;&gt;Langchain&lt;/font&gt;" style="rounded=0;whiteSpace=wrap;html=1;" vertex="1" parent="1">
          <mxGeometry x="477.5" y="532" width="100" height="40" as="geometry" />
        </mxCell>
        <mxCell id="dG5a5I4tYh5ZI3J57kfK-7" value="&lt;font style=&quot;font-size: 18px;&quot;&gt;Llamaindex&lt;/font&gt;" style="rounded=0;whiteSpace=wrap;html=1;" vertex="1" parent="1">
          <mxGeometry x="607.5" y="532" width="100" height="40" as="geometry" />
        </mxCell>
        <mxCell id="dG5a5I4tYh5ZI3J57kfK-8" value="&lt;span style=&quot;font-size: 18px;&quot;&gt;ChatRAG&lt;/span&gt;" style="rounded=0;whiteSpace=wrap;html=1;" vertex="1" parent="1">
          <mxGeometry x="737.5" y="532" width="100" height="40" as="geometry" />
        </mxCell>
        <mxCell id="dG5a5I4tYh5ZI3J57kfK-10" value="&lt;span style=&quot;font-size: 18px;&quot;&gt;......&lt;/span&gt;" style="rounded=0;whiteSpace=wrap;html=1;" vertex="1" parent="1">
          <mxGeometry x="865" y="532" width="100" height="40" as="geometry" />
        </mxCell>
        <mxCell id="dG5a5I4tYh5ZI3J57kfK-11" value="&lt;span style=&quot;font-size: 24px;&quot;&gt;Application Framework&lt;/span&gt;" style="text;html=1;strokeColor=none;fillColor=none;align=center;verticalAlign=middle;whiteSpace=wrap;rounded=0;" vertex="1" parent="1">
          <mxGeometry x="584" y="582" width="270" height="20" as="geometry" />
        </mxCell>
        <mxCell id="dG5a5I4tYh5ZI3J57kfK-12" value="" style="endArrow=classic;html=1;rounded=0;entryX=0.5;entryY=1;entryDx=0;entryDy=0;exitX=0.5;exitY=0;exitDx=0;exitDy=0;" edge="1" parent="1" source="dG5a5I4tYh5ZI3J57kfK-2">
          <mxGeometry width="50" height="50" relative="1" as="geometry">
            <mxPoint x="750" y="320" as="sourcePoint" />
            <mxPoint x="720" y="479.9999999999998" as="targetPoint" />
          </mxGeometry>
        </mxCell>
        <mxCell id="dG5a5I4tYh5ZI3J57kfK-15" value="&lt;font style=&quot;font-size: 24px;&quot;&gt;Application Module&lt;/font&gt;" style="text;html=1;strokeColor=none;fillColor=none;align=center;verticalAlign=middle;whiteSpace=wrap;rounded=0;" vertex="1" parent="1">
          <mxGeometry x="580.5" y="340" width="270" height="30" as="geometry" />
        </mxCell>
        <mxCell id="dG5a5I4tYh5ZI3J57kfK-17" value="&lt;font style=&quot;font-size: 18px;&quot;&gt;ChatSQL&lt;/font&gt;" style="rounded=1;whiteSpace=wrap;html=1;" vertex="1" parent="1">
          <mxGeometry x="655.5" y="391" width="120" height="30" as="geometry" />
        </mxCell>
        <mxCell id="dG5a5I4tYh5ZI3J57kfK-18" value="&lt;font style=&quot;font-size: 18px;&quot;&gt;PPT Copilot&lt;/font&gt;" style="rounded=1;whiteSpace=wrap;html=1;" vertex="1" parent="1">
          <mxGeometry x="798" y="391" width="120" height="30" as="geometry" />
        </mxCell>
        <mxCell id="dG5a5I4tYh5ZI3J57kfK-19" value="&lt;font style=&quot;font-size: 18px;&quot;&gt;Chat Doctrine&lt;/font&gt;" style="rounded=1;whiteSpace=wrap;html=1;" vertex="1" parent="1">
          <mxGeometry x="508" y="432" width="120" height="30" as="geometry" />
        </mxCell>
        <mxCell id="dG5a5I4tYh5ZI3J57kfK-20" value="&lt;span style=&quot;font-size: 18px;&quot;&gt;Chat tools&lt;/span&gt;" style="rounded=1;whiteSpace=wrap;html=1;" vertex="1" parent="1">
          <mxGeometry x="655.5" y="432" width="120" height="30" as="geometry" />
        </mxCell>
        <mxCell id="dG5a5I4tYh5ZI3J57kfK-21" value="&lt;span style=&quot;font-size: 18px;&quot;&gt;......&lt;/span&gt;" style="rounded=1;whiteSpace=wrap;html=1;" vertex="1" parent="1">
          <mxGeometry x="798" y="432" width="120" height="30" as="geometry" />
        </mxCell>
        <mxCell id="dG5a5I4tYh5ZI3J57kfK-34" value="&lt;font style=&quot;font-size: 18px;&quot;&gt;Powerpoints&lt;/font&gt;" style="rounded=0;whiteSpace=wrap;html=1;" vertex="1" parent="1">
          <mxGeometry x="337.5" y="1190" width="100" height="40" as="geometry" />
        </mxCell>
        <mxCell id="dG5a5I4tYh5ZI3J57kfK-41" value="&lt;span style=&quot;font-size: 24px;&quot;&gt;Tool Service Module&lt;/span&gt;" style="text;html=1;strokeColor=none;fillColor=none;align=center;verticalAlign=middle;whiteSpace=wrap;rounded=0;" vertex="1" parent="1">
          <mxGeometry x="576.5" y="1095" width="270" height="30" as="geometry" />
        </mxCell>
        <mxCell id="dG5a5I4tYh5ZI3J57kfK-42" value="&lt;font style=&quot;font-size: 18px;&quot;&gt;Markdown&lt;/font&gt;" style="rounded=0;whiteSpace=wrap;html=1;" vertex="1" parent="1">
          <mxGeometry x="450.5" y="1190" width="100" height="40" as="geometry" />
        </mxCell>
        <mxCell id="dG5a5I4tYh5ZI3J57kfK-43" value="&lt;font style=&quot;font-size: 18px;&quot;&gt;Coding IDE&lt;/font&gt;" style="rounded=0;whiteSpace=wrap;html=1;" vertex="1" parent="1">
          <mxGeometry x="450.5" y="1250" width="100" height="40" as="geometry" />
        </mxCell>
        <mxCell id="dG5a5I4tYh5ZI3J57kfK-44" value="&lt;span style=&quot;font-size: 18px;&quot;&gt;Word&lt;/span&gt;" style="rounded=0;whiteSpace=wrap;html=1;" vertex="1" parent="1">
          <mxGeometry x="337.5" y="1250" width="100" height="40" as="geometry" />
        </mxCell>
        <mxCell id="dG5a5I4tYh5ZI3J57kfK-45" value="&lt;span style=&quot;font-size: 18px;&quot;&gt;......&lt;/span&gt;" style="rounded=0;whiteSpace=wrap;html=1;" vertex="1" parent="1">
          <mxGeometry x="391.5" y="1300" width="100" height="40" as="geometry" />
        </mxCell>
        <mxCell id="dG5a5I4tYh5ZI3J57kfK-53" value="&lt;font style=&quot;font-size: 24px;&quot;&gt;General Tools&lt;/font&gt;" style="text;html=1;strokeColor=none;fillColor=none;align=center;verticalAlign=middle;whiteSpace=wrap;rounded=0;" vertex="1" parent="1">
          <mxGeometry x="348.5" y="1148" width="186" height="30" as="geometry" />
        </mxCell>
        <mxCell id="dG5a5I4tYh5ZI3J57kfK-54" value="" style="rounded=1;whiteSpace=wrap;html=1;" vertex="1" parent="1">
          <mxGeometry x="587.5" y="1130" width="250" height="220" as="geometry" />
        </mxCell>
        <mxCell id="dG5a5I4tYh5ZI3J57kfK-55" value="&lt;span style=&quot;font-size: 18px;&quot;&gt;Computer vision&lt;/span&gt;" style="rounded=0;whiteSpace=wrap;html=1;" vertex="1" parent="1">
          <mxGeometry x="607.5" y="1190" width="100" height="40" as="geometry" />
        </mxCell>
        <mxCell id="dG5a5I4tYh5ZI3J57kfK-56" value="&lt;font style=&quot;font-size: 18px;&quot;&gt;NLP&lt;/font&gt;" style="rounded=0;whiteSpace=wrap;html=1;" vertex="1" parent="1">
          <mxGeometry x="720.5" y="1190" width="100" height="40" as="geometry" />
        </mxCell>
        <mxCell id="dG5a5I4tYh5ZI3J57kfK-57" value="&lt;font style=&quot;font-size: 18px;&quot;&gt;Audio Generation&lt;/font&gt;" style="rounded=0;whiteSpace=wrap;html=1;" vertex="1" parent="1">
          <mxGeometry x="720.5" y="1250" width="100" height="40" as="geometry" />
        </mxCell>
        <mxCell id="dG5a5I4tYh5ZI3J57kfK-58" value="&lt;span style=&quot;font-size: 18px;&quot;&gt;AI4Science&lt;/span&gt;" style="rounded=0;whiteSpace=wrap;html=1;" vertex="1" parent="1">
          <mxGeometry x="607.5" y="1250" width="100" height="40" as="geometry" />
        </mxCell>
        <mxCell id="dG5a5I4tYh5ZI3J57kfK-59" value="&lt;span style=&quot;font-size: 18px;&quot;&gt;......&lt;/span&gt;" style="rounded=0;whiteSpace=wrap;html=1;" vertex="1" parent="1">
          <mxGeometry x="661.5" y="1300" width="100" height="40" as="geometry" />
        </mxCell>
        <mxCell id="dG5a5I4tYh5ZI3J57kfK-60" value="&lt;font style=&quot;font-size: 24px;&quot;&gt;AI Tools&lt;/font&gt;" style="text;html=1;strokeColor=none;fillColor=none;align=center;verticalAlign=middle;whiteSpace=wrap;rounded=0;" vertex="1" parent="1">
          <mxGeometry x="618.5" y="1148" width="186" height="30" as="geometry" />
        </mxCell>
        <mxCell id="dG5a5I4tYh5ZI3J57kfK-61" value="" style="rounded=1;whiteSpace=wrap;html=1;" vertex="1" parent="1">
          <mxGeometry x="857.5" y="1125" width="250" height="220" as="geometry" />
        </mxCell>
        <mxCell id="dG5a5I4tYh5ZI3J57kfK-62" value="&lt;span style=&quot;font-size: 18px;&quot;&gt;Postgres&lt;/span&gt;" style="rounded=0;whiteSpace=wrap;html=1;" vertex="1" parent="1">
          <mxGeometry x="877.5" y="1185" width="100" height="40" as="geometry" />
        </mxCell>
        <mxCell id="dG5a5I4tYh5ZI3J57kfK-63" value="&lt;span style=&quot;font-size: 18px;&quot;&gt;Oracle&lt;/span&gt;" style="rounded=0;whiteSpace=wrap;html=1;" vertex="1" parent="1">
          <mxGeometry x="990.5" y="1185" width="100" height="40" as="geometry" />
        </mxCell>
        <mxCell id="dG5a5I4tYh5ZI3J57kfK-64" value="&lt;span style=&quot;font-size: 18px;&quot;&gt;FASSI&lt;/span&gt;" style="rounded=0;whiteSpace=wrap;html=1;" vertex="1" parent="1">
          <mxGeometry x="990.5" y="1245" width="100" height="40" as="geometry" />
        </mxCell>
        <mxCell id="dG5a5I4tYh5ZI3J57kfK-65" value="&lt;span style=&quot;font-size: 18px;&quot;&gt;ChromaDB&lt;/span&gt;" style="rounded=0;whiteSpace=wrap;html=1;" vertex="1" parent="1">
          <mxGeometry x="877.5" y="1245" width="100" height="40" as="geometry" />
        </mxCell>
        <mxCell id="dG5a5I4tYh5ZI3J57kfK-66" value="&lt;span style=&quot;font-size: 18px;&quot;&gt;......&lt;/span&gt;" style="rounded=0;whiteSpace=wrap;html=1;" vertex="1" parent="1">
          <mxGeometry x="931.5" y="1295" width="100" height="40" as="geometry" />
        </mxCell>
        <mxCell id="dG5a5I4tYh5ZI3J57kfK-67" value="&lt;font style=&quot;font-size: 24px;&quot;&gt;Database Tools&lt;/font&gt;" style="text;html=1;strokeColor=none;fillColor=none;align=center;verticalAlign=middle;whiteSpace=wrap;rounded=0;" vertex="1" parent="1">
          <mxGeometry x="888.5" y="1143" width="186" height="30" as="geometry" />
        </mxCell>
        <mxCell id="dG5a5I4tYh5ZI3J57kfK-78" value="&lt;font style=&quot;font-size: 24px;&quot;&gt;Data Module&lt;/font&gt;" style="text;html=1;strokeColor=none;fillColor=none;align=center;verticalAlign=middle;whiteSpace=wrap;rounded=0;" vertex="1" parent="1">
          <mxGeometry x="607.5" y="1430" width="270" height="30" as="geometry" />
        </mxCell>
        <mxCell id="dG5a5I4tYh5ZI3J57kfK-84" value="&lt;span style=&quot;font-size: 18px;&quot;&gt;Doctrine&lt;/span&gt;" style="rounded=0;whiteSpace=wrap;html=1;" vertex="1" parent="1">
          <mxGeometry x="328" y="1710" width="100" height="40" as="geometry" />
        </mxCell>
        <mxCell id="dG5a5I4tYh5ZI3J57kfK-85" value="&lt;span style=&quot;font-size: 18px;&quot;&gt;Slides&lt;/span&gt;" style="rounded=0;whiteSpace=wrap;html=1;" vertex="1" parent="1">
          <mxGeometry x="450.5" y="1710" width="100" height="40" as="geometry" />
        </mxCell>
        <mxCell id="dG5a5I4tYh5ZI3J57kfK-86" value="&lt;span style=&quot;font-size: 18px;&quot;&gt;Video&lt;/span&gt;" style="rounded=0;whiteSpace=wrap;html=1;" vertex="1" parent="1">
          <mxGeometry x="571" y="1710" width="100" height="40" as="geometry" />
        </mxCell>
        <mxCell id="dG5a5I4tYh5ZI3J57kfK-87" value="&lt;span style=&quot;font-size: 18px;&quot;&gt;Code&lt;/span&gt;" style="rounded=0;whiteSpace=wrap;html=1;" vertex="1" parent="1">
          <mxGeometry x="693.5" y="1710" width="100" height="40" as="geometry" />
        </mxCell>
        <mxCell id="dG5a5I4tYh5ZI3J57kfK-88" value="&lt;span style=&quot;font-size: 18px;&quot;&gt;Image&lt;/span&gt;" style="rounded=0;whiteSpace=wrap;html=1;" vertex="1" parent="1">
          <mxGeometry x="813" y="1710" width="100" height="40" as="geometry" />
        </mxCell>
        <mxCell id="dG5a5I4tYh5ZI3J57kfK-89" value="&lt;span style=&quot;font-size: 18px;&quot;&gt;Chart&lt;/span&gt;" style="rounded=0;whiteSpace=wrap;html=1;" vertex="1" parent="1">
          <mxGeometry x="933" y="1710" width="100" height="40" as="geometry" />
        </mxCell>
        <mxCell id="dG5a5I4tYh5ZI3J57kfK-90" value="&lt;span style=&quot;font-size: 18px;&quot;&gt;Audio&lt;/span&gt;" style="rounded=0;whiteSpace=wrap;html=1;" vertex="1" parent="1">
          <mxGeometry x="1053" y="1710" width="100" height="40" as="geometry" />
        </mxCell>
        <mxCell id="dG5a5I4tYh5ZI3J57kfK-92" value="&lt;font style=&quot;font-size: 24px;&quot;&gt;Raw data&lt;/font&gt;" style="text;html=1;strokeColor=none;fillColor=none;align=center;verticalAlign=middle;whiteSpace=wrap;rounded=0;" vertex="1" parent="1">
          <mxGeometry x="683.5" y="1675" width="126" height="30" as="geometry" />
        </mxCell>
        <mxCell id="dG5a5I4tYh5ZI3J57kfK-93" value="" style="rounded=1;whiteSpace=wrap;html=1;" vertex="1" parent="1">
          <mxGeometry x="310" y="1524" width="859.5" height="100" as="geometry" />
        </mxCell>
        <mxCell id="dG5a5I4tYh5ZI3J57kfK-94" value="&lt;span style=&quot;font-size: 18px;&quot;&gt;Torch&lt;/span&gt;" style="rounded=0;whiteSpace=wrap;html=1;" vertex="1" parent="1">
          <mxGeometry x="328" y="1564" width="100" height="40" as="geometry" />
        </mxCell>
        <mxCell id="dG5a5I4tYh5ZI3J57kfK-95" value="&lt;span style=&quot;font-size: 18px;&quot;&gt;Numpy&lt;/span&gt;" style="rounded=0;whiteSpace=wrap;html=1;" vertex="1" parent="1">
          <mxGeometry x="450.5" y="1564" width="100" height="40" as="geometry" />
        </mxCell>
        <mxCell id="dG5a5I4tYh5ZI3J57kfK-96" value="&lt;span style=&quot;font-size: 18px;&quot;&gt;Pandas&lt;/span&gt;" style="rounded=0;whiteSpace=wrap;html=1;" vertex="1" parent="1">
          <mxGeometry x="571" y="1564" width="100" height="40" as="geometry" />
        </mxCell>
        <mxCell id="dG5a5I4tYh5ZI3J57kfK-97" value="&lt;span style=&quot;font-size: 18px;&quot;&gt;PyPDF&lt;/span&gt;" style="rounded=0;whiteSpace=wrap;html=1;" vertex="1" parent="1">
          <mxGeometry x="693.5" y="1564" width="100" height="40" as="geometry" />
        </mxCell>
        <mxCell id="dG5a5I4tYh5ZI3J57kfK-98" value="&lt;span style=&quot;font-size: 18px;&quot;&gt;OpenCV&lt;/span&gt;" style="rounded=0;whiteSpace=wrap;html=1;" vertex="1" parent="1">
          <mxGeometry x="813" y="1564" width="100" height="40" as="geometry" />
        </mxCell>
        <mxCell id="dG5a5I4tYh5ZI3J57kfK-99" value="&lt;span style=&quot;font-size: 18px;&quot;&gt;TorchAudio&lt;/span&gt;" style="rounded=0;whiteSpace=wrap;html=1;" vertex="1" parent="1">
          <mxGeometry x="933" y="1564" width="100" height="40" as="geometry" />
        </mxCell>
        <mxCell id="dG5a5I4tYh5ZI3J57kfK-100" value="&lt;span style=&quot;font-size: 18px;&quot;&gt;......&lt;/span&gt;" style="rounded=0;whiteSpace=wrap;html=1;" vertex="1" parent="1">
          <mxGeometry x="1053" y="1564" width="100" height="40" as="geometry" />
        </mxCell>
        <mxCell id="dG5a5I4tYh5ZI3J57kfK-101" value="&lt;font style=&quot;font-size: 24px;&quot;&gt;Data Clean and Security&lt;/font&gt;" style="text;html=1;strokeColor=none;fillColor=none;align=center;verticalAlign=middle;whiteSpace=wrap;rounded=0;" vertex="1" parent="1">
          <mxGeometry x="601" y="1524" width="266.5" height="30" as="geometry" />
        </mxCell>
      </root>
    </mxGraphModel>
  </diagram>
</mxfile>
